<svg xmlns="http://www.w3.org/2000/svg" version="1.1" xmlns:xlink="http://www.w3.org/1999/xlink" xmlns:svgjs="http://svgjs.dev/svgjs" width="2000" height="520" viewBox="0 0 2000 520"><g transform="matrix(1,0,0,1,-1.2121212121212466,-1.684476230542714)"><svg viewBox="0 0 396 103" data-background-color="#ffffff" preserveAspectRatio="xMidYMid meet" height="520" width="2000" xmlns="http://www.w3.org/2000/svg" xmlns:xlink="http://www.w3.org/1999/xlink"><g id="tight-bounds" transform="matrix(1,0,0,1,0.2400000000000091,0.33365586874211317)"><svg viewBox="0 0 395.52 102.33268826251579" height="102.33268826251579" width="395.52"><g><svg viewBox="0 0 395.52 102.33268826251579" height="102.33268826251579" width="395.52"><g><svg viewBox="0 0 395.52 102.33268826251579" height="102.33268826251579" width="395.52"><g id="textblocktransform"><svg viewBox="0 0 395.52 102.33268826251579" height="102.33268826251579" width="395.52" id="textblock"><g><svg viewBox="0 0 395.52 102.33268826251579" height="102.33268826251579" width="395.52"><g transform="matrix(1,0,0,1,0,0)"><svg width="395.52" viewBox="4.79 -32.29 165.05 42.71" height="102.33268826251579" data-palette-color="url(#ae75362d-87f4-4948-94c3-1abb32862b4c)"></svg></g></svg></g></svg></g></svg></g></svg></g><defs></defs><mask id="9663bac0-f1c0-4776-8ead-f0a669996c0a"><g id="SvgjsG4453"><svg viewBox="0 0 395.52 102.33268826251579" height="102.33268826251579" width="395.52"><g><svg viewBox="0 0 395.52 102.33268826251579" height="102.33268826251579" width="395.52"><g><svg viewBox="0 0 395.52 102.33268826251579" height="102.33268826251579" width="395.52"><g id="SvgjsG4452"><svg viewBox="0 0 395.52 102.33268826251579" height="102.33268826251579" width="395.52" id="SvgjsSvg4451"><g><svg viewBox="0 0 395.52 102.33268826251579" height="102.33268826251579" width="395.52"><g transform="matrix(1,0,0,1,0,0)"><svg width="395.52" viewBox="4.79 -32.29 165.05 42.71" height="102.33268826251579" data-palette-color="url(#ae75362d-87f4-4948-94c3-1abb32862b4c)"><path d="M8.75 0L4.79 0 4.79-31.25 8.75-31.25 8.75 0ZM20.62 0L16.87 0 16.87-20.83 20.34-20.83 20.34-17.47Q21.49-19.31 23.31-20.28 25.14-21.25 27.25-21.25L27.25-21.25Q29.48-21.25 31.37-20.16 33.26-19.06 34.44-17 35.62-14.93 35.62-11.98L35.62-11.98 35.62 0 31.87 0 31.87-11.46Q31.87-13.92 30.4-15.82 28.92-17.71 26.25-17.71L26.25-17.71Q24.06-17.71 22.34-16.13 20.62-14.55 20.62-11.56L20.62-11.56 20.62 0ZM47.25 0.42L47.25 0.42Q45.65 0.42 43.83-0.19 42.01-0.8 40.69-2.22L40.69-2.22 41.73-6.32Q42.7-4.69 44.23-3.73 45.76-2.78 47.5-2.78L47.5-2.78Q49.16-2.78 50-3.59 50.83-4.41 50.83-5.59L50.83-5.59Q50.83-6.94 49.94-7.57 49.06-8.19 48.36-8.44L48.36-8.44 45.55-9.51Q44.79-9.83 43.71-10.43 42.63-11.04 41.84-12.19 41.04-13.33 41.04-15.17L41.04-15.17Q41.04-16.84 41.84-18.23 42.63-19.62 44.09-20.43 45.55-21.25 47.53-21.25L47.53-21.25Q49.09-21.25 50.79-20.69 52.5-20.14 53.68-18.82L53.68-18.82 52.63-14.72Q51.8-16.25 50.38-17.15 48.95-18.06 47.43-18.06L47.43-18.06Q46-18.06 45.19-17.26 44.37-16.46 44.37-15.42L44.37-15.42Q44.37-14.58 44.93-13.92 45.48-13.26 46.59-12.85L46.59-12.85 49.4-11.77Q50.17-11.49 51.3-10.87 52.43-10.24 53.29-9.06 54.16-7.88 54.16-5.87L54.16-5.87Q54.16-3.06 52.2-1.32 50.24 0.42 47.25 0.42ZM63.33 10.42L59.58 10.42 59.58-20.83 63.05-20.83 63.05-18.09Q64.47-19.51 66.35-20.31 68.22-21.11 70.37-21.11L70.37-21.11Q73.26-21.11 75.6-19.67 77.94-18.23 79.35-15.8 80.76-13.37 80.76-10.42L80.76-10.42Q80.76-7.47 79.35-5.03 77.94-2.6 75.6-1.16 73.26 0.28 70.37 0.28L70.37 0.28Q68.33 0.28 66.52-0.45 64.71-1.18 63.33-2.47L63.33-2.47 63.33 10.42ZM69.89-3.13L69.89-3.13Q71.87-3.13 73.48-4.11 75.1-5.1 76.05-6.75 77.01-8.4 77.01-10.42L77.01-10.42Q77.01-12.43 76.05-14.08 75.1-15.73 73.48-16.72 71.87-17.71 69.89-17.71L69.89-17.71Q67.91-17.71 66.29-16.72 64.68-15.73 63.73-14.08 62.77-12.43 62.77-10.42L62.77-10.42Q62.77-8.4 63.73-6.75 64.68-5.1 66.29-4.11 67.91-3.13 69.89-3.13ZM89.71 0L85.96 0 85.96-20.83 89.71-20.83 89.71 0ZM87.84-24.58L87.84-24.58Q86.8-24.58 86.07-25.31 85.34-26.04 85.34-27.08L85.34-27.08Q85.34-28.16 86.07-28.87 86.8-29.58 87.84-29.58L87.84-29.58Q88.91-29.58 89.63-28.87 90.34-28.16 90.34-27.08L90.34-27.08Q90.34-26.04 89.63-25.31 88.91-24.58 87.84-24.58ZM100.13 0L96.38 0 96.38-20.83 99.85-20.83 99.85-17.01Q100.96-18.85 102.8-19.95 104.64-21.04 107.18-21.04L107.18-21.04 108.11-17.29Q107.45-17.5 106.58-17.5L106.58-17.5Q103.67-17.5 101.9-15.64 100.13-13.78 100.13-10.35L100.13-10.35 100.13 0ZM121.93 0.42L121.93 0.42Q118.67 0.42 116.08-1.04 113.49-2.5 112.02-5.02 110.54-7.53 110.54-10.63L110.54-10.63Q110.54-13.58 111.96-15.99 113.39-18.4 115.8-19.83 118.21-21.25 121.13-21.25L121.13-21.25Q124.01-21.25 126.41-19.88 128.8-18.51 130.23-16.18 131.65-13.85 131.65-10.9L131.65-10.9 131.65-9.38 118.04-9.38Q117.14-9.38 116.2-9.44 115.26-9.51 114.36-9.65L114.36-9.65Q114.74-6.88 116.88-5 119.01-3.13 121.96-3.13L121.96-3.13Q123.94-3.13 125.64-4.03 127.35-4.93 128.39-6.42L128.39-6.42 129.43-2.15Q127.94-0.94 126.01-0.26 124.08 0.42 121.93 0.42ZM114.26-12.19L114.26-12.19Q116.13-12.5 118.04-12.5L118.04-12.5 124.95-12.5Q125.71-12.5 126.46-12.45 127.21-12.4 127.97-12.33L127.97-12.33Q127.49-14.76 125.54-16.34 123.6-17.92 121.13-17.92L121.13-17.92Q118.6-17.92 116.69-16.23 114.78-14.55 114.26-12.19ZM137.93 0L133.94 0 147.17-32.29 147.24-32.29 160.47 0 156.27 0 152.59-9.27 141.65-9.27 137.93 0ZM145.43-18.75L142.97-12.57 151.27-12.57 148.8-18.75Q148.35-19.93 147.93-21.08 147.52-22.22 147.1-23.82L147.1-23.82Q146.68-22.22 146.3-21.09 145.92-19.97 145.43-18.75L145.43-18.75ZM169.84 0L165.88 0 165.88-31.25 169.84-31.25 169.84 0Z" opacity="1" transform="matrix(1,0,0,1,0,0)" fill="white" class="wordmark-text-0" id="SvgjsPath4450"></path></svg></g></svg></g></svg></g></svg></g></svg></g><defs><mask></mask></defs></svg><rect width="395.52" height="102.33268826251579" fill="black" stroke="none" visibility="hidden"></rect></g></mask><linearGradient x1="0" x2="1" y1="0.548" y2="0.55" id="ae75362d-87f4-4948-94c3-1abb32862b4c"><stop stop-color="#ff6cab" offset="0"></stop><stop stop-color="#7366ff" offset="1"></stop></linearGradient><rect width="395.52" height="102.33268826251579" fill="url(#ae75362d-87f4-4948-94c3-1abb32862b4c)" mask="url(#9663bac0-f1c0-4776-8ead-f0a669996c0a)" data-fill-palette-color="primary"></rect></svg><rect width="395.52" height="102.33268826251579" fill="none" stroke="none" visibility="hidden"></rect></g></svg></g></svg>